OpenNagMundari.ufo
<glyph name="uni0000" format="2">
  <advance width="1000"/>
  <unicode hex="0000"/>
  <outline>
    <contour>
      <point x="427" y="516" type="line"/>
      <point x="427" y="108" type="line"/>
      <point x="659" y="108" type="line"/>
      <point x="659" y="516" type="line"/>
    </contour>
    <contour>
      <point x="381" y="600" type="line"/>
      <point x="715" y="600" type="line"/>
      <point x="715" y="32" type="line"/>
      <point x="381" y="32" type="line"/>
    </contour>
  </outline>
</glyph>
<glyph name="u1E4D0" format="2">
  <advance width="532"/>
  <unicode hex="1E4D0"/>
  <image fileName="4677e926-0925-4e9d-824c-ff51778bdedb.png" xScale="37.86588372240223" yScale="39.3114607712305" xOffset="-224.13048415944542" yOffset="-128.26744575389955"/>
  <outline>
    <contour>
      <point x="86" y="597" type="curve" smooth="yes"/>
      <point x="129.433" y="644.989"/>
      <point x="193.9" y="664.473"/>
      <point x="258.666" y="664.473" type="curve" smooth="yes"/>
      <point x="374.068" y="664.473"/>
      <point x="490.418" y="602.614"/>
      <point x="490.418" y="529.938" type="curve" smooth="yes"/>
      <point x="490.418" y="509.113"/>
      <point x="480.865" y="487.4"/>
      <point x="459" y="466" type="curve" smooth="yes"/>
      <point x="430.069" y="437.535"/>
      <point x="414.638" y="405.804"/>
      <point x="414.638" y="377.412" type="curve" smooth="yes"/>
      <point x="414.638" y="344.959"/>
      <point x="434.797" y="316.867"/>
      <point x="478" y="303" type="curve" smooth="yes"/>
      <point x="503.442" y="295.049"/>
      <point x="513.713" y="276.036"/>
      <point x="513.713" y="251.301" type="curve" smooth="yes"/>
      <point x="513.713" y="213.814"/>
      <point x="490.123" y="163.185"/>
      <point x="460" y="118" type="curve" smooth="yes"/>
      <point x="416.227" y="50.0956"/>
      <point x="343.794" y="15.2597"/>
      <point x="263.735" y="15.2597" type="curve" smooth="yes"/>
      <point x="201.135" y="15.2597"/>
      <point x="133.872" y="36.5581"/>
      <point x="72" y="80" type="curve" smooth="yes"/>
      <point x="21.4615" y="115.493"/>
      <point x="-0.649682" y="146.223"/>
      <point x="-0.649682" y="165.931" type="curve" smooth="yes"/>
      <point x="-0.649682" y="180.497"/>
      <point x="11.427" y="189.043"/>
      <point x="33.0309" y="189.043" type="curve" smooth="yes"/>
      <point x="57.9675" y="189.043"/>
      <point x="95.5974" y="177.657"/>
      <point x="142" y="151" type="curve" smooth="yes"/>
      <point x="190.487" y="123.293"/>
      <point x="253.191" y="106.248"/>
      <point x="296.831" y="106.248" type="curve" smooth="yes"/>
      <point x="309.893" y="106.248"/>
      <point x="321.246" y="107.775"/>
      <point x="330" y="111" type="curve" smooth="yes"/>
      <point x="368.049" y="125.634"/>
      <point x="384.012" y="145.354"/>
      <point x="384.012" y="168.202" type="curve" smooth="yes"/>
      <point x="384.012" y="207.805"/>
      <point x="336.049" y="256.805"/>
      <point x="272" y="305" type="curve" smooth="yes"/>
      <point x="227" y="339" type="line"/>
      <point x="261" y="382" type="line" smooth="yes"/>
      <point x="296" y="426"/>
      <point x="355" y="464"/>
      <point x="355" y="497" type="curve" smooth="yes"/>
      <point x="355" y="552.815"/>
      <point x="314.436" y="583.278"/>
      <point x="263.181" y="583.278" type="curve" smooth="yes"/>
      <point x="226.279" y="583.278"/>
      <point x="183.836" y="567.487"/>
      <point x="147" y="534" type="curve" smooth="yes"/>
      <point x="106.952" y="497.993"/>
      <point x="74.7331" y="482.371"/>
      <point x="54.9072" y="482.371" type="curve" smooth="yes"/>
      <point x="40.8766" y="482.371"/>
      <point x="33.0526" y="490.195"/>
      <point x="33.0526" y="504.156" type="curve" smooth="yes"/>
      <point x="33.0526" y="524.16"/>
      <point x="49.1158" y="556.763"/>
    </contour>
  </outline>
</glyph>
<glyph name="u1E4D1" format="2">
  <advance width="892"/>
  <unicode hex="1E4D1"/>
  <outline>
    <contour>
      <point x="193" y="348" type="line"/>
      <point x="179.823" y="298.823" type="line"/>
      <point x="215.823" y="262.823" type="line"/>
      <point x="253.823" y="272.823" type="line"/>
      <point x="267" y="322" type="line"/>
      <point x="242.177" y="361.177" type="line"/>
    </contour>
    <contour>
      <point x="263.158" y="618.211" type="curve" smooth="yes"/>
      <point x="263.158" y="734"/>
      <point x="288.053" y="752"/>
      <point x="317" y="752" type="curve" smooth="yes"/>
      <point x="345.591" y="752"/>
      <point x="368.421" y="731.368"/>
      <point x="368.421" y="615.579" type="curve" smooth="yes"/>
      <point x="368.421" y="415.579"/>
      <point x="377.355" y="403.396"/>
      <point x="513.158" y="418.211" type="curve" smooth="yes"/>
      <point x="638.336" y="431.866"/>
      <point x="664.726" y="459.995"/>
      <point x="674.016" y="628.737" type="curve" smooth="yes"/>
      <point x="684.031" y="810.658"/>
      <point x="785.588" y="798.636"/>
      <point x="789.474" y="407.685" type="curve" smooth="yes"/>
      <point x="792.822" y="70.8584"/>
      <point x="773.685" y="-13.3682"/>
      <point x="710.526" y="-13.3682" type="curve" smooth="yes"/>
      <point x="657.895" y="-13.3682"/>
      <point x="631.579" y="39.2627"/>
      <point x="631.579" y="144.526" type="curve" smooth="yes"/>
      <point x="631.579" y="276.105"/>
      <point x="610.526" y="302.421"/>
      <point x="505.263" y="302.421" type="curve" smooth="yes"/>
      <point x="421.053" y="302.421"/>
      <point x="368.421" y="262.947"/>
      <point x="347.368" y="184" type="curve" smooth="yes"/>
      <point x="315.789" y="65.5791" type="line"/>
      <point x="208.907" y="191.895" type="line" smooth="yes"/>
      <point x="84.2109" y="339.263"/>
      <point x="76.3799" y="407.685"/>
      <point x="184.211" y="407.685" type="curve" smooth="yes"/>
      <point x="241.447" y="407.685"/>
      <point x="263.158" y="465.579"/>
    </contour>
  </outline>
</glyph>
<glyph name="u1E4D2" format="2">
  <advance width="846"/>
  <unicode hex="1E4D2"/>
  <outline>
    <contour>
      <point x="231.25" y="702" type="curve" smooth="yes"/>
      <point x="346.711" y="829.895"/>
      <point x="579.615" y="822"/>
      <point x="673.77" y="687" type="curve" smooth="yes"/>
      <point x="760.948" y="562"/>
      <point x="782.428" y="-3"/>
      <point x="700" y="-3" type="curve" smooth="yes"/>
      <point x="672.642" y="-3"/>
      <point x="650" y="117"/>
      <point x="650" y="262" type="curve" smooth="yes"/>
      <point x="650" y="577"/>
      <point x="567.742" y="714.936"/>
      <point x="395" y="689.6" type="curve" smooth="yes"/>
      <point x="283.823" y="673.294"/>
      <point x="273.905" y="647"/>
      <point x="260.114" y="332" type="curve" smooth="yes"/>
      <point x="241.725" y="-88"/>
      <point x="150" y="-112.99"/>
      <point x="150" y="302" type="curve" smooth="yes"/>
      <point x="150" y="522"/>
      <point x="173.589" y="638.129"/>
    </contour>
  </outline>
</glyph>
<glyph name="u1E4D3" format="2">
  <advance width="888"/>
  <unicode hex="1E4D3"/>
  <outline>
    <contour>
      <point x="424.953" y="675.363" type="move" smooth="yes"/>
    </contour>
    <contour>
      <point x="164.474" y="730.5" type="curve" smooth="yes"/>
      <point x="214.537" y="835.24"/>
      <point x="308.952" y="704.231"/>
      <point x="428.553" y="709.563" type="curve" smooth="yes"/>
      <point x="515.306" y="713.431"/>
      <point x="591.742" y="783.432"/>
      <point x="653.553" y="752.763" type="curve" smooth="yes"/>
      <point x="768.226" y="695.867"/>
      <point x="676.053" y="459.467"/>
      <point x="505.526" y="385.055" type="curve" smooth="yes"/>
      <point x="320.789" y="304.442"/>
      <point x="291.712" y="139.152"/>
      <point x="458.158" y="115.791" type="curve" smooth="yes"/>
      <point x="537.773" y="104.616"/>
      <point x="579.736" y="133.658"/>
      <point x="614.023" y="223.658" type="curve" smooth="yes"/>
      <point x="660.939" y="346.815"/>
      <point x="756.579" y="384.95"/>
      <point x="756.579" y="280.5" type="curve" smooth="yes"/>
      <point x="756.579" y="162.079"/>
      <point x="607.66" y="10.5"/>
      <point x="491.316" y="10.5" type="curve" smooth="yes"/>
      <point x="88.6836" y="10.5"/>
      <point x="85.3447" y="376.706"/>
      <point x="486.579" y="530.044" type="curve" smooth="yes"/>
      <point x="557.632" y="557.197"/>
      <point x="614.474" y="599.974"/>
      <point x="614.474" y="626.289" type="curve" smooth="yes"/>
      <point x="614.474" y="695.396"/>
      <point x="486.688" y="687.868"/>
      <point x="453.641" y="616.815" type="curve" smooth="yes"/>
      <point x="431.609" y="569.447"/>
      <point x="418.391" y="569.447"/>
      <point x="396.358" y="616.815" type="curve" smooth="yes"/>
      <point x="358.267" y="698.713"/>
      <point x="235.526" y="687.868"/>
      <point x="235.526" y="602.605" type="curve" smooth="yes"/>
      <point x="235.526" y="564.711"/>
      <point x="213.421" y="531.553"/>
      <point x="188.157" y="531.553" type="curve" smooth="yes"/>
      <point x="136.053" y="531.553"/>
      <point x="136.077" y="671.088"/>
    </contour>
  </outline>
</glyph>
<glyph name="u1E4D4" format="2">
  <advance width="782"/>
  <unicode hex="1E4D4"/>
  <outline>
    <contour>
      <point x="204.25" y="666" type="curve" smooth="yes"/>
      <point x="258.5" y="736"/>
      <point x="353.462" y="796"/>
      <point x="410" y="796" type="curve" smooth="yes"/>
      <point x="555" y="796"/>
      <point x="700" y="653.5"/>
      <point x="700" y="511" type="curve" smooth="yes"/>
      <point x="700" y="406.223"/>
      <point x="680" y="396"/>
      <point x="475" y="396" type="curve" smooth="yes"/>
      <point x="235" y="396"/>
      <point x="196.309" y="339.75"/>
      <point x="320.234" y="171" type="curve" smooth="yes"/>
      <point x="382.248" y="86.5557"/>
      <point x="405" y="82.8184"/>
      <point x="525" y="137.363" type="curve" smooth="yes"/>
      <point x="690" y="212.363"/>
      <point x="762" y="164.363"/>
      <point x="630" y="67.3633" type="curve" smooth="yes"/>
      <point x="480" y="-42.8633"/>
      <point x="321.07" y="-20.875"/>
      <point x="206.188" y="126" type="curve" smooth="yes"/>
      <point x="73.2178" y="296"/>
      <point x="72.5" y="496"/>
    </contour>
    <contour>
      <point x="549.615" y="621" type="curve" smooth="yes"/>
      <point x="470.692" y="716"/>
      <point x="379.308" y="716"/>
      <point x="300.385" y="621" type="curve" smooth="yes"/>
      <point x="222.308" y="527.019"/>
      <point x="280" y="446"/>
      <point x="425" y="446" type="curve" smooth="yes"/>
      <point x="570" y="446"/>
      <point x="627.692" y="527.019"/>
    </contour>
  </outline>
</glyph>
<glyph name="u1E4D5" format="2">
  <advance width="762"/>
  <unicode hex="1E4D5"/>
  <outline>
    <contour>
      <point x="152.381" y="705" type="curve" smooth="yes"/>
      <point x="231.502" y="784.121"/>
      <point x="405.291" y="776.429"/>
      <point x="475.132" y="690.714" type="curve" smooth="yes"/>
      <point x="508.672" y="649.552"/>
      <point x="522.235" y="559.762"/>
      <point x="507.143" y="478.81" type="curve" smooth="yes"/>
      <point x="484.947" y="359.762"/>
      <point x="496.933" y="336.154"/>
      <point x="585.714" y="324.048" type="curve" smooth="yes"/>
      <point x="608.352" y="320.961"/>
      <point x="685.933" y="331.662"/>
      <point x="701" y="323" type="curve"/>
      <point x="739.569" y="300.825"/>
      <point x="696.859" y="240.605"/>
      <point x="704.762" y="155" type="curve" smooth="yes"/>
      <point x="715.312" y="40.7139"/>
      <point x="699.743" y="0.238281"/>
      <point x="645.238" y="0.238281" type="curve" smooth="yes"/>
      <point x="596.927" y="0.238281"/>
      <point x="571.429" y="45.4766"/>
      <point x="571.429" y="131.19" type="curve" smooth="yes"/>
      <point x="571.429" y="262.143" type="line"/>
      <point x="497" y="245" type="line"/>
      <point x="510.96" y="143.096" type="line" smooth="yes"/>
      <point x="532.83" y="-16.5498"/>
      <point x="159.393" y="-54.0283"/>
      <point x="111.886" y="71.667" type="curve" smooth="yes"/>
      <point x="70.1172" y="182.179"/>
      <point x="147.619" y="298.197"/>
      <point x="290.477" y="339.014" type="curve" smooth="yes"/>
      <point x="404.762" y="371.667"/>
      <point x="404.762" y="371.667"/>
      <point x="300" y="376.313" type="curve" smooth="yes"/>
      <point x="153.001" y="382.833"/>
      <point x="161.904" y="476.429"/>
      <point x="309.523" y="476.429" type="curve" smooth="yes"/>
      <point x="385.714" y="476.429"/>
      <point x="428.571" y="502.143"/>
      <point x="428.571" y="547.857" type="curve" smooth="yes"/>
      <point x="428.571" y="657.381"/>
      <point x="283.181" y="696.52"/>
      <point x="216.301" y="605" type="curve" smooth="yes"/>
      <point x="184.981" y="562.143"/>
      <point x="143.697" y="524.048"/>
      <point x="128.571" y="524.048" type="curve" smooth="yes"/>
      <point x="74.8125" y="524.048"/>
      <point x="90.4766" y="643.096"/>
    </contour>
    <contour>
      <point x="380.952" y="166.904" type="curve" smooth="yes"/>
      <point x="380.952" y="238.333"/>
      <point x="276.871" y="262.823"/>
      <point x="219.048" y="205" type="curve" smooth="yes"/>
      <point x="159.846" y="145.798"/>
      <point x="190.477" y="95.4766"/>
      <point x="285.714" y="95.4766" type="curve" smooth="yes"/>
      <point x="338.096" y="95.4766"/>
      <point x="380.952" y="127.619"/>
    </contour>
  </outline>
</glyph>
<glyph name="u1E4D6" format="2">
  <advance width="860"/>
  <unicode hex="1E4D6"/>
  <outline>
    <contour>
      <point x="115.789" y="616.685" type="line" smooth="yes"/>
      <point x="106.501" y="748.263"/>
      <point x="124.493" y="802"/>
      <point x="157" y="802" type="curve" smooth="yes"/>
      <point x="187.702" y="802"/>
      <point x="210.526" y="756.158"/>
      <point x="210.526" y="650.895" type="curve" smooth="yes"/>
      <point x="210.526" y="412.188"/>
      <point x="332.579" y="405.842"/>
      <point x="356.455" y="647.947" type="curve" smooth="yes"/>
      <point x="378.989" y="876.438"/>
      <point x="471.685" y="863.737"/>
      <point x="471.685" y="632.158" type="curve" smooth="yes"/>
      <point x="471.685" y="390.053"/>
      <point x="617.601" y="395.971"/>
      <point x="641.243" y="635.105" type="curve" smooth="yes"/>
      <point x="650.609" y="729.842"/>
      <point x="677.993" y="794.677"/>
      <point x="715" y="808" type="curve" smooth="yes"/>
      <point x="763.732" y="825.543"/>
      <point x="789.474" y="740.368"/>
      <point x="789.474" y="424.579" type="curve" smooth="yes"/>
      <point x="789.474" y="82.4736"/>
      <point x="773.879" y="-1.7373"/>
      <point x="710.526" y="-1.7373" type="curve" smooth="yes"/>
      <point x="655.606" y="-1.7373"/>
      <point x="631.579" y="53.5264"/>
      <point x="631.579" y="179.842" type="curve" smooth="yes"/>
      <point x="631.579" y="359.51"/>
      <point x="628.947" y="361.587"/>
      <point x="381.579" y="377.211" type="curve" smooth="yes"/>
      <point x="131.579" y="393" type="line"/>
    </contour>
  </outline>
</glyph>
<glyph name="u1E4D7" format="2">
  <advance width="758"/>
  <unicode hex="1E4D7"/>
  <outline>
    <contour>
      <point x="211.136" y="647.714" type="curve" smooth="yes"/>
      <point x="355.01" y="867.858"/>
      <point x="617.422" y="771.523"/>
      <point x="691.075" y="471.523" type="curve" smooth="yes"/>
      <point x="715.626" y="371.523"/>
      <point x="705.357" y="338.19"/>
      <point x="650" y="338.19" type="curve" smooth="yes"/>
      <point x="602.308" y="338.19"/>
      <point x="571.136" y="392.952"/>
      <point x="561.904" y="492.952" type="curve" smooth="yes"/>
      <point x="550.916" y="612"/>
      <point x="522.345" y="651.274"/>
      <point x="438.096" y="663.141" type="curve" smooth="yes"/>
      <point x="321.568" y="679.553"/>
      <point x="255.722" y="576.286"/>
      <point x="303.767" y="452.477" type="curve" smooth="yes"/>
      <point x="327.79" y="390.571"/>
      <point x="346.727" y="387"/>
      <point x="404.762" y="433.429" type="curve" smooth="yes"/>
      <point x="442.857" y="463.904"/>
      <point x="478.614" y="470.571"/>
      <point x="481.386" y="447.714" type="curve" smooth="yes"/>
      <point x="492.353" y="357.238"/>
      <point x="504.9" y="312.596"/>
      <point x="541.615" y="233.429" type="curve" smooth="yes"/>
      <point x="585.616" y="138.55"/>
      <point x="500" y="4.85742"/>
      <point x="395.238" y="4.85742" type="curve" smooth="yes"/>
      <point x="357.143" y="4.85742"/>
      <point x="318.367" y="33.4287"/>
      <point x="304.762" y="71.5234" type="curve" smooth="yes"/>
      <point x="290.692" y="110.918"/>
      <point x="238.096" y="127.477"/>
      <point x="176.19" y="112" type="curve" smooth="yes"/>
      <point x="71.4287" y="85.8096" type="line"/>
      <point x="176.19" y="195.333" type="line" smooth="yes"/>
      <point x="274.266" y="297.866"/>
      <point x="276.241" y="312"/>
      <point x="207.143" y="416.762" type="curve" smooth="yes"/>
      <point x="139.238" y="519.714"/>
      <point x="139.558" y="538.19"/>
    </contour>
    <contour>
      <point x="476.19" y="145.333" type="curve" smooth="yes"/>
      <point x="476.19" y="172.477"/>
      <point x="457.143" y="202"/>
      <point x="428.571" y="219.143" type="curve" smooth="yes"/>
      <point x="400.922" y="235.732"/>
      <point x="380.952" y="216.762"/>
      <point x="380.952" y="173.904" type="curve" smooth="yes"/>
      <point x="380.952" y="131.048"/>
      <point x="400.922" y="100.096"/>
      <point x="428.571" y="100.096" type="curve" smooth="yes"/>
      <point x="457.143" y="100.096"/>
      <point x="476.19" y="118.19"/>
    </contour>
  </outline>
</glyph>
<glyph name="u1E4D8" format="2">
  <advance width="772"/>
  <unicode hex="1E4D8"/>
  <outline>
    <contour>
      <point x="175.484" y="699" type="curve" smooth="yes"/>
      <point x="218.611" y="742.39"/>
      <point x="322.5" y="779"/>
      <point x="402.5" y="779" type="curve" smooth="yes"/>
      <point x="548.671" y="779"/>
      <point x="550" y="776.5"/>
      <point x="550" y="501.5" type="curve" smooth="yes"/>
      <point x="550" y="341.5"/>
      <point x="535.825" y="191.14"/>
      <point x="559" y="211" type="curve" smooth="yes"/>
      <point x="745.154" y="370.527"/>
      <point x="749.654" y="214.296"/>
      <point x="610" y="69" type="curve" smooth="yes"/>
      <point x="487.805" y="-58.1309"/>
      <point x="400" y="-11"/>
      <point x="400" y="179" type="curve" smooth="yes"/>
      <point x="400" y="289"/>
      <point x="381.896" y="317.059"/>
      <point x="325" y="295.243" type="curve" smooth="yes"/>
      <point x="140" y="224.311"/>
      <point x="21.5635" y="544.141"/>
    </contour>
    <contour>
      <point x="400" y="554" type="curve" smooth="yes"/>
      <point x="400" y="634"/>
      <point x="373" y="679"/>
      <point x="325" y="679" type="curve" smooth="yes"/>
      <point x="277" y="679"/>
      <point x="250" y="634"/>
      <point x="250" y="554" type="curve" smooth="yes"/>
      <point x="250" y="474"/>
      <point x="277" y="429"/>
      <point x="325" y="429" type="curve" smooth="yes"/>
      <point x="373" y="429"/>
      <point x="400" y="474"/>
    </contour>
  </outline>
</glyph>
<glyph name="u1E4D9" format="2">
  <advance width="794"/>
  <unicode hex="1E4D9"/>
  <outline>
    <contour>
      <point x="316.514" y="737.737" type="curve" smooth="yes"/>
      <point x="391.846" y="879.309"/>
      <point x="582.129" y="848.263"/>
      <point x="671.367" y="679.842" type="curve" smooth="yes"/>
      <point x="749.45" y="532.474"/>
      <point x="726.031" y="184.943"/>
      <point x="630.226" y="69.3154" type="curve" smooth="yes"/>
      <point x="546.122" y="-32.1875"/>
      <point x="322.684" y="-25.4209"/>
      <point x="282.654" y="79.8418" type="curve" smooth="yes"/>
      <point x="263.692" y="129.703"/>
      <point x="215.789" y="147.049"/>
      <point x="152.632" y="126.921" type="curve" smooth="yes"/>
      <point x="16.2109" y="83.4463"/>
      <point x="26.3154" y="181.453"/>
      <point x="168.421" y="280.057" type="curve" smooth="yes"/>
      <point x="284.211" y="360.4"/>
      <point x="290.732" y="358.789"/>
      <point x="318.421" y="243" type="curve" smooth="yes"/>
      <point x="351.145" y="106.158"/>
      <point x="517.233" y="56.959"/>
      <point x="584.937" y="164.053" type="curve" smooth="yes"/>
      <point x="662.094" y="286.101"/>
      <point x="636.842" y="352.356"/>
      <point x="500" y="386.913" type="curve" smooth="yes"/>
      <point x="326.315" y="430.772"/>
      <point x="240.491" y="594.867"/>
    </contour>
    <contour>
      <point x="568.421" y="582.474" type="curve" smooth="yes"/>
      <point x="559.608" y="645.632"/>
      <point x="522.399" y="705.602"/>
      <point x="484.211" y="718.196" type="curve" smooth="yes"/>
      <point x="384.615" y="751.041"/>
      <point x="400" y="540.035"/>
      <point x="500" y="501.645" type="curve" smooth="yes"/>
      <point x="562.668" y="477.586"/>
      <point x="580.171" y="498.263"/>
    </contour>
  </outline>
</glyph>
<glyph name="u1E4DA" format="2">
  <advance width="806"/>
  <unicode hex="1E4DA"/>
  <outline>
    <contour>
      <point x="609.074" y="148.623" type="curve"/>
      <point x="606.848" y="115.9" type="line"/>
      <point x="628.627" y="88.1807" type="line"/>
      <point x="663.524" y="93.1826" type="line"/>
      <point x="676.641" y="125.905" type="line"/>
      <point x="672.434" y="160.503" type="line"/>
      <point x="653.803" y="193.326"/>
      <point x="611.91" y="193.627"/>
    </contour>
    <contour>
      <point x="118.815" y="702.345" type="curve" smooth="yes"/>
      <point x="108.394" y="780.503"/>
      <point x="130.105" y="819.583"/>
      <point x="183.948" y="819.583" type="curve" smooth="yes"/>
      <point x="232.405" y="819.583"/>
      <point x="264.711" y="777.898"/>
      <point x="264.711" y="715.372" type="curve" smooth="yes"/>
      <point x="264.711" y="658.056"/>
      <point x="337.841" y="581.253"/>
      <point x="379.395" y="581.253" type="curve" smooth="yes"/>
      <point x="420.948" y="581.253"/>
      <point x="424.174" y="660.491"/>
      <point x="448.657" y="715.372" type="curve" smooth="yes"/>
      <point x="515.87" y="866.022"/>
      <point x="598.673" y="815.599"/>
      <point x="554.495" y="585.108" type="curve" smooth="yes"/>
      <point x="520.532" y="407.905"/>
      <point x="629.333" y="262.307"/>
      <point x="634.814" y="226.832" type="curve" smooth="yes"/>
      <point x="636.899" y="213.334"/>
      <point x="670.069" y="293.229"/>
      <point x="688.274" y="294.152" type="curve" smooth="yes"/>
      <point x="705.771" y="295.039"/>
      <point x="695.82" y="341.6"/>
      <point x="718.025" y="344.327" type="curve" smooth="yes"/>
      <point x="796.604" y="353.977"/>
      <point x="723.237" y="76.2129"/>
      <point x="639.869" y="48.4238" type="curve" smooth="yes"/>
      <point x="604.527" y="36.6445"/>
      <point x="558.086" y="79.6875"/>
      <point x="533.053" y="147.424" type="curve" smooth="yes"/>
      <point x="489.568" y="265.088"/>
      <point x="488.1" y="264.661"/>
      <point x="452.29" y="123.978" type="curve" smooth="yes"/>
      <point x="421.784" y="4.13477"/>
      <point x="392.795" y="-16.6484"/>
      <point x="275.132" y="-3.03516" type="curve" smooth="yes"/>
      <point x="61.5" y="21.6826"/>
      <point x="55.625" y="217.112"/>
      <point x="264.711" y="343.575" type="curve" smooth="yes"/>
      <point x="431.448" y="444.424" type="line"/>
      <point x="282.948" y="514.766" type="line" smooth="yes"/>
      <point x="199.579" y="554.257"/>
      <point x="127.591" y="636.528"/>
    </contour>
    <contour>
      <point x="368.921" y="199.529" type="curve" smooth="yes"/>
      <point x="368.921" y="227.666"/>
      <point x="350.163" y="246.424"/>
      <point x="322.025" y="246.424" type="curve" smooth="yes"/>
      <point x="259.5" y="246.424"/>
      <point x="191.289" y="147.897"/>
      <point x="228.237" y="110.95" type="curve" smooth="yes"/>
      <point x="266.604" y="72.582"/>
      <point x="368.921" y="137.003"/>
    </contour>
  </outline>
</glyph>
<glyph name="u1E4DB" format="2">
  <advance width="726"/>
  <unicode hex="1E4DB"/>
  <outline>
    <contour>
      <point x="77.8232" y="757.588" type="curve" smooth="yes"/>
      <point x="150.294" y="830.059"/>
      <point x="326.294" y="841.059"/>
      <point x="326.294" y="773.118" type="curve" smooth="yes"/>
      <point x="326.294" y="747.494"/>
      <point x="279.706" y="714.882"/>
      <point x="222.765" y="700.647" type="curve" smooth="yes"/>
      <point x="165.823" y="686.412"/>
      <point x="119.235" y="637.494"/>
      <point x="119.235" y="591.94" type="curve" smooth="yes"/>
      <point x="119.235" y="542.247"/>
      <point x="160.646" y="509.118"/>
      <point x="222.765" y="509.118" type="curve" smooth="yes"/>
      <point x="279.706" y="509.118"/>
      <point x="326.294" y="485.823"/>
      <point x="326.294" y="457.354" type="curve" smooth="yes"/>
      <point x="326.294" y="428.235"/>
      <point x="290.059" y="405.588"/>
      <point x="243.471" y="405.588" type="curve" smooth="yes"/>
      <point x="129.823" y="405.588"/>
      <point x="171" y="231.807"/>
      <point x="290.059" y="208.967" type="curve" smooth="yes"/>
      <point x="389.129" y="189.962"/>
      <point x="492.442" y="134.973"/>
      <point x="531" y="228" type="curve" smooth="yes"/>
      <point x="555.568" y="287.276"/>
      <point x="533.354" y="461.296"/>
      <point x="533.354" y="566.059" type="curve" smooth="yes"/>
      <point x="533.354" y="757.588"/>
      <point x="552.369" y="819.706"/>
      <point x="611" y="819.706" type="curve" smooth="yes"/>
      <point x="673.118" y="819.706"/>
      <point x="688.646" y="736.882"/>
      <point x="688.646" y="405.588" type="curve" smooth="yes"/>
      <point x="688.646" y="162.294"/>
      <point x="667.294" y="-8.5293"/>
      <point x="636.882" y="-8.5293" type="curve" smooth="yes"/>
      <point x="607.303" y="-8.5293"/>
      <point x="585.118" y="22.5293"/>
      <point x="585.118" y="63.9404" type="curve" smooth="yes"/>
      <point x="585.118" y="117.341"/>
      <point x="533.354" y="129.479"/>
      <point x="388.412" y="110.067" type="curve" smooth="yes"/>
      <point x="165.823" y="80.2559"/>
      <point x="37.459" y="182.37"/>
      <point x="81.9912" y="353.823" type="curve" smooth="yes"/>
      <point x="96.7812" y="410.765"/>
      <point x="87.918" y="469.932"/>
      <point x="62.2939" y="485.307" type="curve" smooth="yes"/>
      <point x="-3.78223" y="524.952"/>
      <point x="5.35352" y="685.118"/>
    </contour>
  </outline>
</glyph>
<glyph name="u1E4DC" format="2">
  <advance width="836"/>
  <unicode hex="1E4DC"/>
  <outline>
    <contour>
      <point x="132.126" y="501.947" type="curve" smooth="yes"/>
      <point x="104.812" y="882.896"/>
      <point x="198.524" y="896.093"/>
      <point x="237.515" y="516.79" type="curve" smooth="yes"/>
      <point x="268.535" y="215"/>
      <point x="363.895" y="71.5732"/>
      <point x="499.071" y="123.392" type="curve" smooth="yes"/>
      <point x="573.283" y="151.839"/>
      <point x="574.481" y="165.526"/>
      <point x="509.267" y="239.737" type="curve" smooth="yes"/>
      <point x="361.445" y="407.947"/>
      <point x="318.039" y="539.709"/>
      <point x="367.472" y="670.157" type="curve" smooth="yes"/>
      <point x="421.841" y="813.632"/>
      <point x="571.445" y="835.504"/>
      <point x="672.022" y="714.684" type="curve" smooth="yes"/>
      <point x="837.215" y="516.246"/>
      <point x="677.178" y="7.21094"/>
      <point x="449.599" y="7.21094" type="curve" smooth="yes"/>
      <point x="263.479" y="7.21094"/>
      <point x="155.538" y="175.421"/>
    </contour>
    <contour>
      <point x="605.831" y="447.526" type="line" smooth="yes"/>
      <point x="625.621" y="635.526"/>
      <point x="539.673" y="767.805"/>
      <point x="486.894" y="630.578" type="curve" smooth="yes"/>
      <point x="468.923" y="583.854"/>
      <point x="484.229" y="487.105"/>
      <point x="521.335" y="412.896" type="curve" smooth="yes"/>
      <point x="588.124" y="279.316" type="line"/>
    </contour>
  </outline>
</glyph>
<glyph name="u1E4DD" format="2">
  <advance width="778"/>
  <unicode hex="1E4DD"/>
  <outline>
    <contour>
      <point x="246.187" y="515.106" type="move" smooth="yes"/>
    </contour>
    <contour>
      <point x="298.722" y="751.777" type="curve" smooth="yes"/>
      <point x="405.342" y="858.398"/>
      <point x="519.403" y="804"/>
      <point x="572.468" y="621.222" type="curve" smooth="yes"/>
      <point x="584.76" y="578.883"/>
      <point x="576.818" y="485.203"/>
      <point x="595.866" y="454.946" type="curve" smooth="yes"/>
      <point x="619.109" y="418.028"/>
      <point x="670.037" y="448.889"/>
      <point x="690.389" y="448.889" type="curve" smooth="yes"/>
      <point x="726.944" y="448.889"/>
      <point x="758.277" y="424.786"/>
      <point x="758.277" y="396.667" type="curve" smooth="yes"/>
      <point x="758.277" y="368.814"/>
      <point x="721.689" y="346.104"/>
      <point x="679.944" y="344.444" type="curve" smooth="yes"/>
      <point x="645.5" y="343.074"/>
      <point x="586.835" y="350.523"/>
      <point x="575.187" y="338.387" type="curve" smooth="yes"/>
      <point x="562.73" y="325.408"/>
      <point x="601.611" y="242.333"/>
      <point x="601.611" y="219.111" type="curve" smooth="yes"/>
      <point x="601.611" y="72.8887"/>
      <point x="476.277" y="-44.0889"/>
      <point x="366.611" y="-0.222656" type="curve" smooth="yes"/>
      <point x="322.222" y="17.5332"/>
      <point x="273.568" y="99"/>
      <point x="254.334" y="187.777" type="curve" smooth="yes"/>
      <point x="245.398" y="229.02"/>
      <point x="253.283" y="315.572"/>
      <point x="235.847" y="343.087" type="curve" smooth="yes"/>
      <point x="215.749" y="374.8"/>
      <point x="169.461" y="344.444"/>
      <point x="147.277" y="344.444" type="curve" smooth="yes"/>
      <point x="51.2559" y="344.444"/>
      <point x="51.7812" y="470.634"/>
      <point x="157.722" y="466.387" type="curve" smooth="yes"/>
      <point x="202.83" y="464.578"/>
      <point x="218.042" y="420.148"/>
      <point x="233.967" y="450.247" type="curve" smooth="yes"/>
      <point x="243.565" y="468.389"/>
      <point x="236.056" y="572.936"/>
      <point x="236.056" y="592.5" type="curve" smooth="yes"/>
      <point x="236.056" y="644.722"/>
      <point x="264.848" y="717.904"/>
    </contour>
    <contour>
      <point x="497.167" y="553.334" type="curve" smooth="yes"/>
      <point x="491.477" y="662.852"/>
      <point x="427.833" y="729.444"/>
      <point x="371.834" y="673.444" type="curve" smooth="yes"/>
      <point x="307.058" y="608.669"/>
      <point x="347.315" y="480.849"/>
      <point x="418.834" y="448.889" type="curve" smooth="yes"/>
      <point x="464.791" y="428.352"/>
      <point x="501.913" y="461.984"/>
    </contour>
    <contour>
      <point x="531.007" y="231.227" type="curve" smooth="yes"/>
      <point x="531.007" y="320.004"/>
      <point x="502.987" y="367.004"/>
      <point x="450.062" y="367.004" type="curve" smooth="yes"/>
      <point x="394.873" y="367.004"/>
      <point x="340.598" y="307.889"/>
      <point x="351.999" y="229.556" type="curve" smooth="yes"/>
      <point x="376.319" y="62.4443"/>
      <point x="531.007" y="67.6152"/>
    </contour>
  </outline>
</glyph>
<glyph name="u1E4DE" format="2">
  <advance width="616"/>
  <unicode hex="1E4DE"/>
  <outline>
    <contour>
      <point x="27.6943" y="741.741" type="curve" smooth="yes"/>
      <point x="56.0352" y="835.695"/>
      <point x="89.457" y="784.068"/>
      <point x="174.549" y="709.923" type="curve" smooth="yes"/>
      <point x="316.321" y="586.385"/>
      <point x="332.801" y="642.613"/>
      <point x="416.859" y="711.146" type="curve" smooth="yes"/>
      <point x="552.607" y="821.828"/>
      <point x="588.188" y="807.127"/>
      <point x="588.188" y="714.817" type="curve" smooth="yes"/>
      <point x="588.188" y="675.658"/>
      <point x="551.475" y="626.356"/>
      <point x="502.523" y="599.782" type="curve" smooth="yes"/>
      <point x="421.367" y="555.726"/>
      <point x="421.324" y="548.382"/>
      <point x="501.707" y="460.271" type="curve" smooth="yes"/>
      <point x="608.885" y="342.787"/>
      <point x="610.48" y="207.526"/>
      <point x="506.034" y="93.1348" type="curve" smooth="yes"/>
      <point x="407.281" y="-15.0244"/>
      <point x="299.374" y="-18.5557"/>
      <point x="157.415" y="81.7275" type="curve" smooth="yes"/>
      <point x="25.2471" y="175.094"/>
      <point x="13.5566" y="419.283"/>
      <point x="137.835" y="490.743" type="curve" smooth="yes"/>
      <point x="215.504" y="535.401"/>
      <point x="213.71" y="543.814"/>
      <point x="110.912" y="616.915" type="curve" smooth="yes"/>
      <point x="52.1689" y="658.688"/>
      <point x="19.4189" y="714.305"/>
    </contour>
    <contour>
      <point x="430.809" y="288.94" type="curve" smooth="yes"/>
      <point x="411.535" y="460.271"/>
      <point x="221.671" y="507.034"/>
      <point x="172.437" y="352.578" type="curve" smooth="yes"/>
      <point x="128.819" y="215.735"/>
      <point x="176.996" y="151.876"/>
      <point x="323.851" y="151.876" type="curve" smooth="yes"/>
      <point x="428.747" y="151.876"/>
      <point x="444.026" y="171.458"/>
    </contour>
  </outline>
</glyph>
<glyph name="u1E4DF" format="2">
  <advance width="632"/>
  <unicode hex="1E4DF"/>
  <outline>
    <contour>
      <point x="135.105" y="707.213" type="curve" smooth="yes"/>
      <point x="234.579" y="764.803"/>
      <point x="383.243" y="771.898"/>
      <point x="457.21" y="722.587" type="curve" smooth="yes"/>
      <point x="541.975" y="666.077"/>
      <point x="618.263" y="487.323"/>
      <point x="618.263" y="345.219" type="curve" smooth="yes"/>
      <point x="618.263" y="32.5869"/>
      <point x="333.46" y="-106.059"/>
      <point x="92.4736" y="89.2568" type="curve" smooth="yes"/>
      <point x="-61.6514" y="214.173"/>
      <point x="21.4209" y="273.323"/>
      <point x="201.421" y="166.83" type="curve" smooth="yes"/>
      <point x="348.263" y="79.9561"/>
      <point x="348.263" y="79.9561"/>
      <point x="435.896" y="186.534" type="curve" smooth="yes"/>
      <point x="496.562" y="260.319"/>
      <point x="514.309" y="331.008"/>
      <point x="493.569" y="416.271" type="curve" smooth="yes"/>
      <point x="432.503" y="667.323"/>
      <point x="297.551" y="730.227"/>
      <point x="135.105" y="583.358" type="curve" smooth="yes"/>
      <point x="59.3154" y="514.837"/>
      <point x="49.8418" y="514.691"/>
      <point x="49.8418" y="582.061" type="curve" smooth="yes"/>
      <point x="49.8418" y="624.166"/>
      <point x="87.7363" y="679.789"/>
    </contour>
  </outline>
</glyph>
<glyph name="u1E4E0" format="2">
  <advance width="696"/>
  <unicode hex="1E4E0"/>
  <outline>
    <contour>
      <point x="84" y="624" type="line"/>
      <point x="119.856" y="593.895" type="line"/>
      <point x="163.856" y="609.895" type="line"/>
      <point x="172" y="656" type="line"/>
      <point x="136.144" y="686.105" type="line"/>
      <point x="92.1436" y="670.105" type="line"/>
    </contour>
    <contour>
      <point x="24.1396" y="682.608" type="curve" smooth="yes"/>
      <point x="64.5" y="787.328"/>
      <point x="219.693" y="778.261"/>
      <point x="247.399" y="669.565" type="curve" smooth="yes"/>
      <point x="264.35" y="603.069"/>
      <point x="304.348" y="582.608"/>
      <point x="417.392" y="582.608" type="curve" smooth="yes"/>
      <point x="521.739" y="582.608"/>
      <point x="565.218" y="563.427"/>
      <point x="565.218" y="517.392" type="curve" smooth="yes"/>
      <point x="565.218" y="482.608"/>
      <point x="544.928" y="452.174"/>
      <point x="521.739" y="452.174" type="curve" smooth="yes"/>
      <point x="452.174" y="452.174"/>
      <point x="394.845" y="298.662"/>
      <point x="438.93" y="230.435" type="curve" smooth="yes"/>
      <point x="471.706" y="179.71"/>
      <point x="488.294" y="182.608"/>
      <point x="538.462" y="247.826" type="curve" smooth="yes"/>
      <point x="591.974" y="317.392"/>
      <point x="695.652" y="348.937"/>
      <point x="695.652" y="295.652" type="curve" smooth="yes"/>
      <point x="695.652" y="213.044"/>
      <point x="589.427" y="104.348"/>
      <point x="508.695" y="104.348" type="curve" smooth="yes"/>
      <point x="326.087" y="104.348"/>
      <point x="232.638" y="317.861"/>
      <point x="358.365" y="447.826" type="curve" smooth="yes"/>
      <point x="402.107" y="493.044"/>
      <point x="395.652" y="501.306"/>
      <point x="326.087" y="489.131" type="curve" smooth="yes"/>
      <point x="297.644" y="484.153"/>
      <point x="241.605" y="527.797"/>
      <point x="227" y="506" type="curve" smooth="yes"/>
      <point x="205.884" y="474.486"/>
      <point x="232.255" y="365.057"/>
      <point x="226.087" y="267.392" type="curve" smooth="yes"/>
      <point x="217.025" y="123.913"/>
      <point x="194.462" y="60.8691"/>
      <point x="152.174" y="60.8691" type="curve" smooth="yes"/>
      <point x="105.166" y="60.8691"/>
      <point x="97.2451" y="110.869"/>
      <point x="117.392" y="280.435" type="curve" smooth="yes"/>
      <point x="138.571" y="458.695"/>
      <point x="129.574" y="510.224"/>
      <point x="69.5654" y="554.348" type="curve" smooth="yes"/>
      <point x="21.7393" y="589.514"/>
      <point x="5.70605" y="634.782"/>
    </contour>
  </outline>
</glyph>
<glyph name="u1E4E1" format="2">
  <advance width="660"/>
  <unicode hex="1E4E1"/>
  <outline>
    <contour>
      <point x="200" y="754.546" type="curve" smooth="yes"/>
      <point x="286.039" y="840.584"/>
      <point x="432.11" y="790.909"/>
      <point x="427.224" y="677.272" type="curve" smooth="yes"/>
      <point x="426.228" y="654.116"/>
      <point x="392.663" y="571.054"/>
      <point x="399" y="554" type="curve" smooth="yes"/>
      <point x="408.834" y="527.537"/>
      <point x="462.999" y="572.728"/>
      <point x="484.091" y="572.728" type="curve" smooth="yes"/>
      <point x="515.909" y="572.728"/>
      <point x="545.454" y="550.842"/>
      <point x="545.454" y="527.272" type="curve" smooth="yes"/>
      <point x="545.454" y="502.651"/>
      <point x="495.454" y="481.818"/>
      <point x="436.363" y="481.818" type="curve" smooth="yes"/>
      <point x="272.728" y="481.818"/>
      <point x="167.678" y="364.321"/>
      <point x="229.104" y="250" type="curve" smooth="yes"/>
      <point x="295.207" y="126.977"/>
      <point x="472.078" y="154.546"/>
      <point x="491.559" y="290.909" type="curve" smooth="yes"/>
      <point x="512.824" y="439.769"/>
      <point x="599.224" y="413.637"/>
      <point x="581.729" y="263.637" type="curve" smooth="yes"/>
      <point x="561.584" y="90.9092"/>
      <point x="370.543" y="26.6514"/>
      <point x="204.546" y="136.769" type="curve" smooth="yes"/>
      <point x="102.979" y="204.146"/>
      <point x="86.5206" y="240.909"/>
      <point x="109.091" y="350" type="curve" smooth="yes"/>
      <point x="117.59" y="391.082"/>
      <point x="184.174" y="449.813"/>
      <point x="179" y="474" type="curve" smooth="yes"/>
      <point x="175.015" y="492.631"/>
      <point x="101.821" y="481.818"/>
      <point x="90.9092" y="481.818" type="curve" smooth="yes"/>
      <point x="63.6367" y="481.818"/>
      <point x="45.4541" y="500"/>
      <point x="45.4541" y="527.272" type="curve" smooth="yes"/>
      <point x="45.4541" y="552.841"/>
      <point x="77.2725" y="572.728"/>
      <point x="118.182" y="572.728" type="curve" smooth="yes"/>
      <point x="136.64" y="572.728"/>
      <point x="191.768" y="556.662"/>
      <point x="201" y="564" type="curve" smooth="yes"/>
      <point x="214.503" y="574.731"/>
      <point x="176.618" y="612.741"/>
      <point x="168.182" y="636.363" type="curve" smooth="yes"/>
      <point x="155.194" y="672.728"/>
      <point x="168.831" y="723.377"/>
    </contour>
    <contour>
      <point x="338.843" y="663.637" type="curve" smooth="yes"/>
      <point x="299.174" y="729.091"/>
      <point x="272.728" y="718.182"/>
      <point x="272.728" y="636.363" type="curve" smooth="yes"/>
      <point x="272.728" y="600"/>
      <point x="293.939" y="580.909"/>
      <point x="318.182" y="595.454" type="curve" smooth="yes"/>
      <point x="345.454" y="611.818"/>
      <point x="353.719" y="639.091"/>
    </contour>
  </outline>
</glyph>
<glyph name="u1E4E2" format="2">
  <advance width="680"/>
  <unicode hex="1E4E2"/>
  <outline>
    <contour>
      <point x="466" y="338" type="line"/>
      <point x="445.823" y="300.947" type="line"/>
      <point x="467.823" y="264.947" type="line"/>
      <point x="510" y="266" type="line"/>
      <point x="530.177" y="303.053" type="line"/>
      <point x="508.177" y="339.053" type="line"/>
    </contour>
    <contour>
      <point x="230.448" y="483.333" type="curve" smooth="yes"/>
      <point x="351.816" y="816.667"/>
      <point x="424.45" y="878.162"/>
      <point x="478.357" y="675" type="curve" smooth="yes"/>
      <point x="498.739" y="598.187"/>
      <point x="477.507" y="446.601"/>
      <point x="564.583" y="577.083" type="curve" smooth="yes"/>
      <point x="587.001" y="610.676"/>
      <point x="625" y="575"/>
      <point x="625" y="533.333" type="curve" smooth="yes"/>
      <point x="625" y="495.833"/>
      <point x="605.859" y="466.667"/>
      <point x="581.25" y="466.667" type="curve" smooth="yes"/>
      <point x="556.25" y="466.667"/>
      <point x="545.536" y="435.417"/>
      <point x="556.25" y="393.75" type="curve" smooth="yes"/>
      <point x="566.25" y="354.861"/>
      <point x="587.639" y="277.083"/>
      <point x="602.083" y="227.083" type="curve" smooth="yes"/>
      <point x="623.75" y="152.083"/>
      <point x="613.333" y="133.333"/>
      <point x="550" y="133.333" type="curve" smooth="yes"/>
      <point x="404.167" y="133.333"/>
      <point x="350.019" y="342.832"/>
      <point x="449" y="448" type="curve" smooth="yes"/>
      <point x="470.568" y="470.917"/>
      <point x="435.937" y="525"/>
      <point x="418.75" y="570.833" type="curve" smooth="yes"/>
      <point x="393.75" y="637.5"/>
      <point x="372.78" y="608.333"/>
      <point x="313.899" y="425" type="curve" smooth="yes"/>
      <point x="236.283" y="183.333"/>
      <point x="185.874" y="101.626"/>
      <point x="141.667" y="145.833" type="curve" smooth="yes"/>
      <point x="128" y="159.5"/>
      <point x="168.248" y="312.5"/>
    </contour>
  </outline>
</glyph>
<glyph name="u1E4E3" format="2">
  <advance width="686"/>
  <unicode hex="1E4E3"/>
  <outline>
    <contour>
      <point x="192.857" y="685.714" type="curve" smooth="yes"/>
      <point x="224.908" y="724.176"/>
      <point x="309.523" y="750.55"/>
      <point x="376.19" y="742.857" type="curve" smooth="yes"/>
      <point x="482.857" y="730.55"/>
      <point x="500" y="707.143"/>
      <point x="500" y="573.81" type="curve" smooth="yes"/>
      <point x="500" y="528.811"/>
      <point x="458.862" y="436.355"/>
      <point x="469" y="408" type="curve" smooth="yes"/>
      <point x="482.464" y="370.341"/>
      <point x="551.153" y="402.971"/>
      <point x="583.333" y="392.857" type="curve" smooth="yes"/>
      <point x="630.952" y="377.892"/>
      <point x="654.422" y="346.259"/>
      <point x="638.096" y="319.048" type="curve" smooth="yes"/>
      <point x="621.429" y="291.27"/>
      <point x="581.377" y="264.204"/>
      <point x="552.381" y="284.857" type="curve" smooth="yes"/>
      <point x="419.532" y="379.48"/>
      <point x="510.666" y="253.35"/>
      <point x="514.286" y="170.571" type="curve" smooth="yes"/>
      <point x="519.328" y="55.2764"/>
      <point x="513.784" y="37.9697"/>
      <point x="409.523" y="11.9043" type="curve" smooth="yes"/>
      <point x="247.619" y="-28.5713"/>
      <point x="71.8525" y="95.1098"/>
      <point x="163.434" y="209.523" type="curve" smooth="yes"/>
      <point x="245.089" y="311.537"/>
      <point x="186.861" y="316.564"/>
      <point x="119.048" y="292.857" type="curve" smooth="yes"/>
      <point x="74.1617" y="277.166"/>
      <point x="47.6191" y="295.238"/>
      <point x="47.6191" y="342.857" type="curve" smooth="yes"/>
      <point x="47.6191" y="385.714"/>
      <point x="80.3584" y="425.125"/>
      <point x="121.429" y="419.048" type="curve" smooth="yes"/>
      <point x="190.901" y="408.768"/>
      <point x="273.549" y="387.664"/>
      <point x="164.286" y="516.667" type="curve" smooth="yes"/>
      <point x="128.771" y="558.599"/>
      <point x="160.918" y="647.387"/>
    </contour>
    <contour>
      <point x="428.571" y="590.477" type="curve" smooth="yes"/>
      <point x="428.571" y="627.143"/>
      <point x="385.714" y="657.143"/>
      <point x="333.333" y="657.143" type="curve" smooth="yes"/>
      <point x="228.571" y="657.143"/>
      <point x="216.179" y="623.81"/>
      <point x="281.99" y="519.048" type="curve" smooth="yes"/>
      <point x="330.087" y="442.485"/>
      <point x="428.571" y="490.477"/>
    </contour>
    <contour>
      <point x="428.571" y="176.19" type="curve" smooth="yes"/>
      <point x="428.571" y="228.571"/>
      <point x="409.286" y="283.454"/>
      <point x="385.714" y="298.151" type="curve" smooth="yes"/>
      <point x="328.339" y="333.927"/>
      <point x="224.734" y="195.238"/>
      <point x="262.59" y="133.333" type="curve" smooth="yes"/>
      <point x="312.888" y="51.082"/>
      <point x="428.571" y="80.9521"/>
    </contour>
  </outline>
</glyph>
<glyph name="u1E4E4" format="2">
  <advance width="596"/>
  <unicode hex="1E4E4"/>
  <outline>
    <contour>
      <point x="72" y="396" type="move" smooth="yes"/>
    </contour>
    <contour>
      <point x="104.147" y="690.477" type="curve" smooth="yes"/>
      <point x="185.753" y="789.683"/>
      <point x="415.854" y="761.904"/>
      <point x="498.606" y="642.857" type="curve" smooth="yes"/>
      <point x="548.258" y="571.429"/>
      <point x="554.004" y="532.034"/>
      <point x="516.667" y="519.048" type="curve" smooth="yes"/>
      <point x="485.863" y="508.333"/>
      <point x="443.387" y="533.333"/>
      <point x="419.577" y="576.19" type="curve" smooth="yes"/>
      <point x="364.021" y="676.19"/>
      <point x="208.896" y="679.167"/>
      <point x="171.375" y="580.952" type="curve" smooth="yes"/>
      <point x="132.312" y="478.696"/>
      <point x="176.19" y="419.048"/>
      <point x="290.477" y="419.048" type="curve" smooth="yes"/>
      <point x="420.347" y="419.048"/>
      <point x="404.762" y="333.82"/>
      <point x="271.429" y="314.881" type="curve" smooth="yes"/>
      <point x="204.762" y="305.411"/>
      <point x="166.667" y="265.368"/>
      <point x="166.667" y="204.762" type="curve" smooth="yes"/>
      <point x="166.667" y="66.667"/>
      <point x="334.712" y="54.7012"/>
      <point x="434.168" y="185.714" type="curve" smooth="yes"/>
      <point x="530.878" y="313.111"/>
      <point x="597.904" y="285.714"/>
      <point x="550.667" y="138.096" type="curve" smooth="yes"/>
      <point x="511.048" y="14.2861"/>
      <point x="319.048" y="-39.4634"/>
      <point x="166.667" y="30.5967" type="curve" smooth="yes"/>
      <point x="70.3613" y="74.875"/>
      <point x="67" y="86.1436"/>
      <point x="67" y="329" type="curve" smooth="yes"/>
      <point x="67" y="342.671"/>
      <point x="153.672" y="372.46"/>
      <point x="154" y="386" type="curve" smooth="yes"/>
      <point x="154.276" y="397.426"/>
      <point x="46.5059" y="454.776"/>
      <point x="47" y="466" type="curve" smooth="yes"/>
      <point x="52.4482" y="589.733"/>
      <point x="82.5036" y="664.165"/>
    </contour>
  </outline>
</glyph>
<glyph name="u1E4E5" format="2">
  <advance width="694"/>
  <unicode hex="1E4E5"/>
  <outline>
    <contour>
      <point x="86.9561" y="413.044" type="curve" smooth="yes"/>
      <point x="86.9561" y="795.652"/>
      <point x="165.357" y="802.817"/>
      <point x="182.103" y="421.739" type="curve" smooth="yes"/>
      <point x="199.871" y="17.3916"/>
      <point x="295.365" y="-1.64355"/>
      <point x="312.979" y="395.652" type="curve" smooth="yes"/>
      <point x="324.931" y="665.218"/>
      <point x="334.91" y="692.599"/>
      <point x="426.087" y="705.971" type="curve" smooth="yes"/>
      <point x="600.896" y="731.609"/>
      <point x="652.174" y="643.479"/>
      <point x="652.174" y="317.392" type="curve" smooth="yes"/>
      <point x="652.174" y="78.2607"/>
      <point x="638.941" y="17.3916"/>
      <point x="586.956" y="17.3916" type="curve" smooth="yes"/>
      <point x="535.518" y="17.3916"/>
      <point x="521.739" y="82.6084"/>
      <point x="521.739" y="326.087" type="curve" smooth="yes"/>
      <point x="521.739" y="552.174"/>
      <point x="507.195" y="629.547"/>
      <point x="467.392" y="615.218" type="curve" smooth="yes"/>
      <point x="435.122" y="603.601"/>
      <point x="404.212" y="482.608"/>
      <point x="391.305" y="317.392" type="curve" smooth="yes"/>
      <point x="373.981" y="95.6523"/>
      <point x="353.669" y="36.1953"/>
      <point x="291.305" y="24.6826" type="curve" smooth="yes"/>
      <point x="141.171" y="-3.03418"/>
      <point x="86.9561" y="100"/>
    </contour>
  </outline>
</glyph>
<glyph name="u1E4E6" format="2">
  <advance width="730"/>
  <unicode hex="1E4E6"/>
  <outline>
    <contour>
      <point x="333.586" y="727.272" type="curve" smooth="yes"/>
      <point x="352.709" y="776.446"/>
      <point x="400" y="799.293"/>
      <point x="463.637" y="790.101" type="curve" smooth="yes"/>
      <point x="606.518" y="769.463"/>
      <point x="709.313" y="486.363"/>
      <point x="654.8" y="263.637" type="curve" smooth="yes"/>
      <point x="618.087" y="113.637"/>
      <point x="596.929" y="93.9805"/>
      <point x="459.091" y="81.8184" type="curve" smooth="yes"/>
      <point x="340.909" y="71.3906"/>
      <point x="234.986" y="16.1494"/>
      <point x="226" y="140" type="curve" smooth="yes"/>
      <point x="214.28" y="301.527"/>
      <point x="274.016" y="356.422"/>
      <point x="112" y="280" type="curve" smooth="yes"/>
      <point x="44.8652" y="248.333"/>
      <point x="97.2549" y="335.523"/>
      <point x="164" y="424" type="curve" smooth="yes"/>
      <point x="269.157" y="563.396"/>
      <point x="314.534" y="500"/>
      <point x="285.314" y="322.728" type="curve" smooth="yes"/>
      <point x="268.082" y="218.182"/>
      <point x="277.013" y="163.637"/>
      <point x="311.363" y="163.637" type="curve" smooth="yes"/>
      <point x="340.984" y="163.637"/>
      <point x="363.637" y="222.728"/>
      <point x="363.637" y="300" type="curve" smooth="yes"/>
      <point x="363.637" y="377.272"/>
      <point x="383.333" y="436.363"/>
      <point x="409.091" y="436.363" type="curve" smooth="yes"/>
      <point x="434.849" y="436.363"/>
      <point x="454.546" y="377.272"/>
      <point x="454.546" y="300" type="curve" smooth="yes"/>
      <point x="454.546" y="222.728"/>
      <point x="474.242" y="163.637"/>
      <point x="500" y="163.637" type="curve" smooth="yes"/>
      <point x="525.974" y="163.637"/>
      <point x="545.454" y="190.909"/>
      <point x="545.454" y="227.272" type="curve" smooth="yes"/>
      <point x="545.454" y="263.637"/>
      <point x="555.194" y="317.208"/>
      <point x="568.182" y="352.272" type="curve" smooth="yes"/>
      <point x="580.578" y="385.744"/>
      <point x="545.454" y="434.123"/>
      <point x="490.909" y="458.707" type="curve" smooth="yes"/>
      <point x="363.637" y="516.069"/>
      <point x="296.212" y="631.169"/>
    </contour>
    <contour>
      <point x="538.637" y="593.182" type="curve" smooth="yes"/>
      <point x="530.037" y="638.637"/>
      <point x="495.577" y="686.605"/>
      <point x="463.637" y="697.585" type="curve" smooth="yes"/>
      <point x="383.554" y="725.113"/>
      <point x="395.454" y="641.293"/>
      <point x="481.818" y="569.526" type="curve" smooth="yes"/>
      <point x="544.718" y="517.258"/>
      <point x="552.396" y="520.454"/>
    </contour>
  </outline>
</glyph>
<glyph name="u1E4E7" format="2">
  <advance width="688"/>
  <unicode hex="1E4E7"/>
  <outline>
    <contour>
      <point x="112.5" y="732.167" type="curve" smooth="yes"/>
      <point x="154.892" y="772.862"/>
      <point x="200.98" y="762.5"/>
      <point x="218.505" y="708.333" type="curve" smooth="yes"/>
      <point x="229.097" y="675.596"/>
      <point x="258.333" y="678.191"/>
      <point x="320.833" y="717.42" type="curve" smooth="yes"/>
      <point x="502.92" y="831.708"/>
      <point x="625" y="662.5"/>
      <point x="625" y="295.833" type="curve" smooth="yes"/>
      <point x="625" y="141.667"/>
      <point x="609.694" y="91.667"/>
      <point x="562.5" y="91.667" type="curve" smooth="yes"/>
      <point x="513.672" y="91.667"/>
      <point x="500" y="150"/>
      <point x="500" y="358.333" type="curve" smooth="yes"/>
      <point x="500" y="637.5"/>
      <point x="455.789" y="717.914"/>
      <point x="350" y="631.167" type="curve" smooth="yes"/>
      <point x="305.128" y="594.372"/>
      <point x="301.763" y="564.583"/>
      <point x="335.417" y="502.083" type="curve" smooth="yes"/>
      <point x="359.065" y="458.164"/>
      <point x="373.424" y="350"/>
      <point x="366.667" y="266.667" type="curve" smooth="yes"/>
      <point x="355.181" y="125"/>
      <point x="344.031" y="112.5"/>
      <point x="229.167" y="112.5" type="curve" smooth="yes"/>
      <point x="120.833" y="112.5"/>
      <point x="102.223" y="128.333"/>
      <point x="89.583" y="231.25" type="curve" smooth="yes"/>
      <point x="81.5371" y="296.768"/>
      <point x="97.4141" y="404.167"/>
      <point x="125" y="470.833" type="curve" smooth="yes"/>
      <point x="161.207" y="558.333"/>
      <point x="162.356" y="607.184"/>
      <point x="129.167" y="647.917" type="curve" smooth="yes"/>
      <point x="105.401" y="677.083"/>
      <point x="97.377" y="717.648"/>
    </contour>
    <contour>
      <point x="284.71" y="295.833" type="curve" smooth="yes"/>
      <point x="302.446" y="416.667"/>
      <point x="231.264" y="501.555"/>
      <point x="193.866" y="404.167" type="curve" smooth="yes"/>
      <point x="178.906" y="365.208"/>
      <point x="166.667" y="295.833"/>
      <point x="166.667" y="250" type="curve" smooth="yes"/>
      <point x="166.667" y="136.054"/>
      <point x="266.973" y="175"/>
    </contour>
  </outline>
</glyph>
<glyph name="u1E4E8" format="2">
  <advance width="722"/>
  <unicode hex="1E4E8"/>
  <outline>
    <contour>
      <point x="50" y="725" type="curve" smooth="yes"/>
      <point x="50" y="890.385"/>
      <point x="199.531" y="790"/>
      <point x="251.094" y="590" type="curve" smooth="yes"/>
      <point x="376.133" y="105"/>
      <point x="382.142" y="100.5"/>
      <point x="451.382" y="440" type="curve" smooth="yes"/>
      <point x="516.645" y="760"/>
      <point x="561.342" y="832.955"/>
      <point x="655" y="772.353" type="curve" smooth="yes"/>
      <point x="685.435" y="752.66"/>
      <point x="686.413" y="717.5"/>
      <point x="657.5" y="682.5" type="curve" smooth="yes"/>
      <point x="631.66" y="651.22"/>
      <point x="581.5" y="482.5"/>
      <point x="547.5" y="312.5" type="curve" smooth="yes"/>
      <point x="492.5" y="37.5"/>
      <point x="471.2" y="0"/>
      <point x="370" y="0" type="curve" smooth="yes"/>
      <point x="268.417" y="0"/>
      <point x="248" y="35"/>
      <point x="195" y="300" type="curve" smooth="yes"/>
      <point x="162" y="465"/>
      <point x="115.875" y="612.375"/>
      <point x="92.5" y="627.5" type="curve" smooth="yes"/>
      <point x="68.2139" y="643.214"/>
      <point x="50" y="685"/>
    </contour>
  </outline>
</glyph>
<glyph name="u1E4E9" format="2">
  <advance width="760"/>
  <unicode hex="1E4E9"/>
  <outline>
    <contour>
      <point x="80" y="714.421" type="curve" smooth="yes"/>
      <point x="80" y="764.226"/>
      <point x="133.264" y="787.053"/>
      <point x="249.474" y="787.053" type="curve" smooth="yes"/>
      <point x="433.474" y="787.053"/>
      <point x="453.011" y="760.164"/>
      <point x="351.5" y="646.632" type="curve" smooth="yes"/>
      <point x="234.605" y="515.895"/>
      <point x="234.428" y="327.457"/>
      <point x="351.157" y="282.753" type="curve" smooth="yes"/>
      <point x="481.203" y="232.948"/>
      <point x="564.21" y="346.421"/>
      <point x="564.21" y="574" type="curve" smooth="yes"/>
      <point x="564.21" y="728.947"/>
      <point x="584.02" y="787.053"/>
      <point x="636.842" y="787.053" type="curve" smooth="yes"/>
      <point x="694.947" y="787.053"/>
      <point x="709.474" y="709.579"/>
      <point x="709.474" y="399.685" type="curve" smooth="yes"/>
      <point x="709.474" y="89.7891"/>
      <point x="694.947" y="12.3164"/>
      <point x="636.842" y="12.3164" type="curve" smooth="yes"/>
      <point x="597.582" y="12.3164"/>
      <point x="564.21" y="53.4736"/>
      <point x="564.21" y="101.895" type="curve" smooth="yes"/>
      <point x="564.21" y="172.94"/>
      <point x="535.157" y="186.981"/>
      <point x="423.789" y="169.759" type="curve" smooth="yes"/>
      <point x="230.621" y="139.888"/>
      <point x="112.595" y="268.947"/>
      <point x="138.239" y="482" type="curve" smooth="yes"/>
      <point x="148.73" y="569.158"/>
      <point x="235.787" y="677.814"/>
      <point x="214.659" y="677.814" type="curve" smooth="yes"/>
      <point x="193.998" y="677.814"/>
      <point x="80" y="675.685"/>
    </contour>
  </outline>
</glyph>
<glyph name="u1E4EA" format="2">
  <advance width="694"/>
  <unicode hex="1E4EA"/>
  <outline>
    <contour>
      <point x="388.695" y="348" type="move" smooth="yes"/>
      <point x="366" y="324"/>
      <point x="368" y="260"/>
      <point x="388" y="248" type="curve" smooth="yes"/>
    </contour>
    <contour>
      <point x="202" y="238" type="line"/>
      <point x="189.287" y="196.02" type="line"/>
      <point x="219.287" y="164.02" type="line"/>
      <point x="262" y="174" type="line"/>
      <point x="274.713" y="215.98" type="line"/>
      <point x="244.713" y="247.98" type="line"/>
    </contour>
    <contour>
      <point x="100" y="745.454" type="curve" smooth="yes"/>
      <point x="175.524" y="820.979"/>
      <point x="343.182" y="813.637"/>
      <point x="411.363" y="731.818" type="curve" smooth="yes"/>
      <point x="446.875" y="689.204"/>
      <point x="467.02" y="606.69"/>
      <point x="439.661" y="518.182" type="curve" smooth="yes"/>
      <point x="417.974" y="448.02"/>
      <point x="388.695" y="348"/>
      <point x="388.695" y="348" type="curve"/>
      <point x="382.112" y="346.428"/>
      <point x="289.98" y="163.701"/>
      <point x="440.909" y="177.972" type="curve" smooth="yes"/>
      <point x="523.085" y="185.741"/>
      <point x="509.722" y="145.094"/>
      <point x="509.041" y="445.454" type="curve" smooth="yes"/>
      <point x="508.023" y="894.406"/>
      <point x="598.181" y="851.419"/>
      <point x="613.637" y="404.546" type="curve" smooth="yes"/>
      <point x="625" y="76" type="line"/>
      <point x="386.363" y="95.4541" type="line" smooth="yes"/>
      <point x="185.27" y="111.848"/>
      <point x="157.182" y="108.818"/>
      <point x="145.454" y="190.909" type="curve" smooth="yes"/>
      <point x="136.538" y="253.321"/>
      <point x="172.728" y="313.178"/>
      <point x="250" y="363.827" type="curve" smooth="yes"/>
      <point x="405.741" y="465.91"/>
      <point x="400" y="677.889"/>
      <point x="240.909" y="699.461" type="curve" smooth="yes"/>
      <point x="163.637" y="709.938"/>
      <point x="136.363" y="689.328"/>
      <point x="136.363" y="620.454" type="curve" smooth="yes"/>
      <point x="136.363" y="570.454"/>
      <point x="115.3" y="527.272"/>
      <point x="90.9092" y="527.272" type="curve" smooth="yes"/>
      <point x="25.5684" y="527.272"/>
      <point x="31.8184" y="677.272"/>
    </contour>
  </outline>
</glyph>
<glyph name="u1E4EB" format="2">
  <advance width="688"/>
  <unicode hex="1E4EB"/>
  <outline>
    <contour>
      <point x="104.811" y="677.272" type="curve" smooth="yes"/>
      <point x="146.403" y="787.121"/>
      <point x="348.554" y="777.272"/>
      <point x="384.711" y="663.637" type="curve" smooth="yes"/>
      <point x="407.143" y="593.136"/>
      <point x="438.637" y="578.85"/>
      <point x="525" y="600" type="curve" smooth="yes"/>
      <point x="606.818" y="620.037"/>
      <point x="636.363" y="607.978"/>
      <point x="636.363" y="554.546" type="curve" smooth="yes"/>
      <point x="636.363" y="505.194"/>
      <point x="595.454" y="481.818"/>
      <point x="509.091" y="481.818" type="curve" smooth="yes"/>
      <point x="363.637" y="481.818"/>
      <point x="272.728" y="406.644"/>
      <point x="272.728" y="286.363" type="curve" smooth="yes"/>
      <point x="272.728" y="181.818"/>
      <point x="400" y="134.218"/>
      <point x="504.546" y="199.662" type="curve" smooth="yes"/>
      <point x="622.728" y="273.644"/>
      <point x="677.105" y="170.032"/>
      <point x="563.637" y="87.0713" type="curve" smooth="yes"/>
      <point x="372.521" y="-52.6592"/>
      <point x="0.623997" y="141.492"/>
      <point x="147.435" y="318.182" type="curve" smooth="yes"/>
      <point x="217.393" y="402.378"/>
      <point x="305.088" y="510.543"/>
      <point x="122.728" y="531.818" type="curve" smooth="yes"/>
      <point x="74.8104" y="537.409"/>
      <point x="89.3203" y="636.363"/>
    </contour>
    <contour>
      <point x="311.363" y="615.909" type="curve" smooth="yes"/>
      <point x="319.786" y="641.177"/>
      <point x="290.909" y="663.637"/>
      <point x="250" y="663.637" type="curve" smooth="yes"/>
      <point x="209.091" y="663.637"/>
      <point x="181.283" y="641.177"/>
      <point x="190.909" y="615.909" type="curve" smooth="yes"/>
      <point x="201.299" y="588.637"/>
      <point x="227.598" y="568.182"/>
      <point x="252.272" y="568.182" type="curve" smooth="yes"/>
      <point x="276.948" y="568.182"/>
      <point x="302.272" y="588.637"/>
    </contour>
  </outline>
</glyph>
<glyph name="u1E4EC" format="2">
  <advance width="3"/>
  <unicode hex="1E4EC"/>
  <outline>
    <contour>
      <point x="-195" y="1020" type="line"/>
      <point x="-144.627" y="1023.25" type="line"/>
      <point x="-116.627" y="981.249" type="line"/>
      <point x="-139" y="936" type="line"/>
      <point x="-189.373" y="932.751" type="line"/>
      <point x="-217.373" y="974.751" type="line"/>
    </contour>
  </outline>
</glyph>
<glyph name="u1E4ED" format="2">
  <advance width="7"/>
  <unicode hex="1E4ED"/>
  <outline>
    <contour>
      <point x="-175" y="909.926" type="curve" smooth="yes"/>
      <point x="-83" y="979.777"/>
      <point x="-33" y="1006.79"/>
      <point x="-33" y="954.222" type="curve" smooth="yes"/>
      <point x="-33" y="906.222"/>
      <point x="-193.865" y="816.108"/>
      <point x="-225" y="846.667" type="curve" smooth="yes"/>
      <point x="-237.632" y="859.064"/>
      <point x="-215" y="879.556"/>
    </contour>
  </outline>
</glyph>
<glyph name="u1E4EE" format="2">
  <advance width="5"/>
  <unicode hex="1E4EE"/>
  <outline>
    <contour>
      <point x="-894" y="-76" type="line"/>
      <point x="-829.127" y="-47.6367" type="line"/>
      <point x="-772.127" y="-89.6367" type="line"/>
      <point x="-780" y="-160" type="line"/>
      <point x="-844.873" y="-188.363" type="line"/>
      <point x="-901.873" y="-146.363" type="line"/>
    </contour>
  </outline>
</glyph>
<glyph name="u1E4EF" format="2">
  <advance width="0"/>
  <unicode hex="1E4EF"/>
  <outline>
    <contour>
      <point x="-527" y="964" type="line"/>
      <point x="-527" y="961.333"/>
      <point x="-527" y="958.667"/>
      <point x="-527" y="956" type="curve" smooth="yes"/>
      <point x="-527" y="950.432"/>
      <point x="-523" y="944.771"/>
      <point x="-523" y="938" type="curve" smooth="yes"/>
      <point x="-512.683" y="912.319"/>
      <point x="-479.539" y="895.86"/>
      <point x="-449" y="896" type="curve" smooth="yes"/>
      <point x="-423.094" y="896.118"/>
      <point x="-399.5" y="894.246"/>
      <point x="-377" y="892" type="curve" smooth="yes"/>
      <point x="-323" y="898" type="line" smooth="yes"/>
      <point x="-281" y="910" type="line" smooth="yes"/>
      <point x="-235" y="928" type="line" smooth="yes"/>
      <point x="-231" y="930" type="line" smooth="yes"/>
      <point x="-187" y="942" type="line" smooth="yes"/>
      <point x="-147" y="950" type="line" smooth="yes"/>
      <point x="-61" y="950" type="line" smooth="yes"/>
      <point x="-42.3105" y="925.188"/>
      <point x="-3" y="910.286"/>
      <point x="-3" y="872" type="curve" smooth="yes"/>
      <point x="-3" y="845.479"/>
      <point x="-8.86719" y="864.546"/>
      <point x="-13" y="860" type="curve" smooth="yes"/>
      <point x="-59" y="878" type="line" smooth="yes"/>
      <point x="-139" y="888" type="line" smooth="yes"/>
      <point x="-213" y="888" type="line" smooth="yes"/>
      <point x="-235.709" y="881.735"/>
      <point x="-260.252" y="862.59"/>
      <point x="-283" y="852" type="curve" smooth="yes"/>
      <point x="-319.114" y="839.591"/>
      <point x="-354.441" y="823.717"/>
      <point x="-397" y="826" type="curve" smooth="yes"/>
      <point x="-436.789" y="829.34"/>
      <point x="-493.695" y="812.445"/>
      <point x="-521" y="854" type="curve" smooth="yes"/>
      <point x="-541.451" y="885.124"/>
      <point x="-591" y="929.552"/>
      <point x="-591" y="966" type="curve" smooth="yes"/>
      <point x="-591" y="972" type="line" smooth="yes"/>
      <point x="-541" y="970" type="line" smooth="yes"/>
      <point x="-527" y="964" type="line" smooth="yes"/>
    </contour>
  </outline>
</glyph>
<glyph name="u1E4F0" format="2">
  <advance width="802"/>
  <unicode hex="1E4F0"/>
  <outline>
    <contour>
      <point x="250.537" y="675" type="curve" smooth="yes"/>
      <point x="399.056" y="853.462"/>
      <point x="650" y="665"/>
      <point x="650" y="375" type="curve" smooth="yes"/>
      <point x="650" y="45"/>
      <point x="375.512" y="-113.84"/>
      <point x="217.979" y="125" type="curve" smooth="yes"/>
      <point x="128.937" y="260"/>
      <point x="146.072" y="549.474"/>
    </contour>
    <contour>
      <point x="450" y="375" type="curve" smooth="yes"/>
      <point x="450" y="560"/>
      <point x="428.462" y="700"/>
      <point x="400" y="700" type="curve" smooth="yes"/>
      <point x="371.538" y="700"/>
      <point x="350" y="560"/>
      <point x="350" y="375" type="curve" smooth="yes"/>
      <point x="350" y="190"/>
      <point x="371.538" y="50"/>
      <point x="400" y="50" type="curve" smooth="yes"/>
      <point x="428.462" y="50"/>
      <point x="450" y="190"/>
    </contour>
  </outline>
</glyph>
<glyph name="u1E4F1" format="2">
  <advance width="436"/>
  <unicode hex="1E4F1"/>
  <outline>
    <contour>
      <point x="173.913" y="434.782" type="curve" smooth="yes"/>
      <point x="173.913" y="678.261"/>
      <point x="188.215" y="760.068"/>
      <point x="228.261" y="745.652" type="curve" smooth="yes"/>
      <point x="263.226" y="733.064"/>
      <point x="287.261" y="615.218"/>
      <point x="295.652" y="415.218" type="curve" smooth="yes"/>
      <point x="306.415" y="158.695"/>
      <point x="296.914" y="104.348"/>
      <point x="241.305" y="104.348" type="curve" smooth="yes"/>
      <point x="186.327" y="104.348"/>
      <point x="173.913" y="165.218"/>
    </contour>
  </outline>
</glyph>
<glyph name="u1E4F2" format="2">
  <advance width="682"/>
  <unicode hex="1E4F2"/>
  <outline>
    <contour>
      <point x="136.363" y="413.637" type="line" smooth="yes"/>
      <point x="136.363" y="827.272"/>
      <point x="217.206" y="875.043"/>
      <point x="236.363" y="472.728" type="curve" smooth="yes"/>
      <point x="250" y="186.363" type="line"/>
      <point x="445.454" y="172.241" type="line" smooth="yes"/>
      <point x="728.754" y="151.771"/>
      <point x="681.818" y="72.7275"/>
      <point x="386.363" y="72.7275" type="curve" smooth="yes"/>
      <point x="136.363" y="72.7275" type="line"/>
    </contour>
  </outline>
</glyph>
<glyph name="u1E4F3" format="2">
  <advance width="864"/>
  <unicode hex="1E4F3"/>
  <outline>
    <contour>
      <point x="139.853" y="756.889" type="curve" smooth="yes"/>
      <point x="181.009" y="823.556"/>
      <point x="777.777" y="833.95"/>
      <point x="777.777" y="768" type="curve" smooth="yes"/>
      <point x="777.777" y="743.535"/>
      <point x="676.631" y="587.444"/>
      <point x="552.777" y="420.777" type="curve" smooth="yes"/>
      <point x="327.777" y="118" type="line"/>
      <point x="555.556" y="100.744" type="line" smooth="yes"/>
      <point x="893.567" y="75.1367"/>
      <point x="827.777" y="-20.8887"/>
      <point x="472.223" y="-20.8887" type="curve" smooth="yes"/>
      <point x="283.333" y="-20.8887"/>
      <point x="166.667" y="2.44434"/>
      <point x="166.667" y="40.2227" type="curve" smooth="yes"/>
      <point x="166.667" y="73.3242"/>
      <point x="255.787" y="223.556"/>
      <point x="361.111" y="368" type="curve" smooth="yes"/>
      <point x="466.436" y="512.444"/>
      <point x="555.556" y="649.944"/>
      <point x="555.556" y="668" type="curve" smooth="yes"/>
      <point x="555.556" y="686.107"/>
      <point x="452.777" y="701.333"/>
      <point x="330.556" y="701.333" type="curve" smooth="yes"/>
      <point x="197.223" y="701.333"/>
      <point x="119.528" y="723.967"/>
    </contour>
  </outline>
</glyph>
<glyph name="u1E4F4" format="2">
  <advance width="834"/>
  <unicode hex="1E4F4"/>
  <outline>
    <contour>
      <point x="149.417" y="399" type="curve" smooth="yes"/>
      <point x="149.417" y="616.059"/>
      <point x="171.017" y="796.059"/>
      <point x="197.063" y="796.059" type="curve" smooth="yes"/>
      <point x="224.033" y="796.059"/>
      <point x="284.916" y="735.177"/>
      <point x="337.357" y="655.765" type="curve" smooth="yes"/>
      <point x="430.005" y="515.471" type="line"/>
      <point x="504.453" y="658.412" type="line" smooth="yes"/>
      <point x="628.671" y="896.909"/>
      <point x="703.928" y="801.353"/>
      <point x="721.263" y="383.117" type="curve" smooth="yes"/>
      <point x="734.211" y="70.7646"/>
      <point x="722.247" y="1.94141"/>
      <point x="655.005" y="1.94141" type="curve" smooth="yes"/>
      <point x="591.883" y="1.94141"/>
      <point x="572.945" y="65.4707"/>
      <point x="572.945" y="277.235" type="curve" smooth="yes"/>
      <point x="572.945" y="531.353"/>
      <point x="567.04" y="544.588"/>
      <point x="496.182" y="449.295" type="curve" smooth="yes"/>
      <point x="419.417" y="346.059"/>
      <point x="419.417" y="346.059"/>
      <point x="340.005" y="451.941" type="curve" smooth="yes"/>
      <point x="265.887" y="550.766"/>
      <point x="260.416" y="539.295"/>
      <point x="257.945" y="279.883" type="curve" smooth="yes"/>
      <point x="256.483" y="126.353"/>
      <point x="231.602" y="1.94141"/>
      <point x="202.357" y="1.94141" type="curve" smooth="yes"/>
      <point x="172.005" y="1.94141"/>
      <point x="149.417" y="171.353"/>
    </contour>
  </outline>
</glyph>
<glyph name="u1E4F5" format="2">
  <advance width="770"/>
  <unicode hex="1E4F5"/>
  <outline>
    <contour>
      <point x="111.111" y="739.889" type="curve" smooth="yes"/>
      <point x="111.111" y="770.92"/>
      <point x="149.223" y="789.444"/>
      <point x="321.444" y="789.444" type="curve" smooth="yes"/>
      <point x="629.777" y="789.444" type="line"/>
      <point x="711.111" y="559.333" type="line" smooth="yes"/>
      <point x="694.641" y="326"/>
      <point x="691.667" y="323.026"/>
      <point x="458.333" y="306.556" type="curve" smooth="yes"/>
      <point x="269.444" y="293.223"/>
      <point x="222.223" y="268.223"/>
      <point x="222.223" y="181.556" type="curve" smooth="yes"/>
      <point x="222.223" y="90.0742"/>
      <point x="261.111" y="73.2227"/>
      <point x="472.223" y="73.2227" type="curve" smooth="yes"/>
      <point x="611.111" y="73.2227"/>
      <point x="723" y="78.8643"/>
      <point x="723" y="48" type="curve" smooth="yes"/>
      <point x="723" y="17.6963"/>
      <point x="581.737" y="-58.2167"/>
      <point x="416.667" y="-37.8887" type="curve" smooth="yes"/>
      <point x="109" y="0" type="line"/>
      <point x="111.111" y="184.333" type="line"/>
      <point x="111.111" y="406.556" type="line"/>
      <point x="333.333" y="406.556" type="line" smooth="yes"/>
      <point x="533.333" y="406.556"/>
      <point x="555.556" y="420.444"/>
      <point x="555.556" y="545.444" type="curve" smooth="yes"/>
      <point x="555.556" y="670.444"/>
      <point x="533.333" y="684.333"/>
      <point x="333.333" y="684.333" type="curve" smooth="yes"/>
      <point x="211.111" y="684.333"/>
      <point x="111.111" y="709.333"/>
    </contour>
  </outline>
</glyph>
<glyph name="u1E4F6" format="2">
  <advance width="646"/>
  <unicode hex="1E4F6"/>
  <outline>
    <contour>
      <point x="77.2725" y="681.818" type="curve" smooth="yes"/>
      <point x="125.563" y="730.108"/>
      <point x="590.909" y="713.637"/>
      <point x="590.909" y="663.637" type="curve" smooth="yes"/>
      <point x="590.909" y="638.384"/>
      <point x="500" y="618.182"/>
      <point x="386.363" y="618.182" type="curve" smooth="yes"/>
      <point x="181.818" y="618.182" type="line"/>
      <point x="181.818" y="322.728" type="line" smooth="yes"/>
      <point x="181.818" y="90.9092"/>
      <point x="167.133" y="27.2725"/>
      <point x="113.637" y="27.2725" type="curve" smooth="yes"/>
      <point x="59.8867" y="27.2725"/>
      <point x="45.4541" y="93.1816"/>
      <point x="45.4541" y="338.637" type="curve" smooth="yes"/>
      <point x="45.4541" y="511.363"/>
      <point x="59.6221" y="664.167"/>
    </contour>
  </outline>
</glyph>
<glyph name="u1E4F7" format="2">
  <advance width="762"/>
  <unicode hex="1E4F7"/>
  <outline>
    <contour>
      <point x="585" y="737" type="curve" smooth="yes"/>
      <point x="661.667" y="813.667"/>
      <point x="700" y="757"/>
      <point x="700" y="567" type="curve" smooth="yes"/>
      <point x="700" y="367" type="line"/>
      <point x="475" y="389" type="line" smooth="yes"/>
      <point x="250" y="389"/>
      <point x="250" y="389"/>
      <point x="250" y="214" type="curve" smooth="yes"/>
      <point x="250" y="119"/>
      <point x="227.143" y="17"/>
      <point x="200" y="17" type="curve" smooth="yes"/>
      <point x="172.223" y="17"/>
      <point x="142.434" y="117.445"/>
      <point x="150" y="242" type="curve" smooth="yes"/>
      <point x="163" y="456" type="line"/>
      <point x="350" y="467" type="line" smooth="yes"/>
      <point x="524.42" y="477.26"/>
      <point x="550" y="481.688"/>
      <point x="550" y="584.5" type="curve" smooth="yes"/>
      <point x="550" y="649.5"/>
      <point x="565.639" y="717.639"/>
    </contour>
  </outline>
</glyph>
<glyph name="u1E4F8" format="2">
  <advance width="752"/>
  <unicode hex="1E4F8"/>
  <outline>
    <contour>
      <point x="100" y="550" type="line" smooth="yes"/>
      <point x="100" y="660"/>
      <point x="122.5" y="750"/>
      <point x="150" y="750" type="curve" smooth="yes"/>
      <point x="177.143" y="750"/>
      <point x="200" y="670"/>
      <point x="200" y="575" type="curve" smooth="yes"/>
      <point x="200" y="400"/>
      <point x="200" y="400"/>
      <point x="425" y="400" type="curve" smooth="yes"/>
      <point x="650" y="400" type="line"/>
      <point x="650" y="200" type="line" smooth="yes"/>
      <point x="650" y="55"/>
      <point x="629.375" y="0"/>
      <point x="575" y="0" type="curve" smooth="yes"/>
      <point x="523.571" y="0"/>
      <point x="500" y="55"/>
      <point x="500" y="175" type="curve" smooth="yes"/>
      <point x="500" y="345.625"/>
      <point x="495" y="350"/>
      <point x="300" y="350" type="curve" smooth="yes"/>
      <point x="100" y="350" type="line"/>
    </contour>
  </outline>
</glyph>
<glyph name="u1E4F9" format="2">
  <advance width="736"/>
  <unicode hex="1E4F9"/>
  <outline>
    <contour>
      <point x="52.6318" y="709.421" type="curve" smooth="yes"/>
      <point x="52.6318" y="768.433"/>
      <point x="118.421" y="788.368"/>
      <point x="313.158" y="788.368" type="curve" smooth="yes"/>
      <point x="455.263" y="788.368"/>
      <point x="588.517" y="764.445"/>
      <point x="606.315" y="735.737" type="curve" smooth="yes"/>
      <point x="658.526" y="651.526"/>
      <point x="419.85" y="-1.10547"/>
      <point x="336.842" y="-1.10547" type="curve" smooth="yes"/>
      <point x="237.594" y="-1.10547"/>
      <point x="242.105" y="51.5264"/>
      <point x="368.421" y="367.315" type="curve" smooth="yes"/>
      <point x="473.685" y="630.474" type="line"/>
      <point x="263.158" y="630.474" type="line" smooth="yes"/>
      <point x="110.526" y="630.474"/>
      <point x="52.6318" y="652.185"/>
    </contour>
  </outline>
</glyph>
